<?xml version="1.0" encoding="UTF-8" standalone="no"?>
<!-- Created with Inkscape (http://www.inkscape.org/) -->

<svg
   xmlns:dc="http://purl.org/dc/elements/1.1/"
   xmlns:cc="http://creativecommons.org/ns#"
   xmlns:rdf="http://www.w3.org/1999/02/22-rdf-syntax-ns#"
   xmlns:svg="http://www.w3.org/2000/svg"
   xmlns="http://www.w3.org/2000/svg"
   xmlns:sodipodi="http://sodipodi.sourceforge.net/DTD/sodipodi-0.dtd"
   xmlns:inkscape="http://www.inkscape.org/namespaces/inkscape"
   width="210mm"
   height="297mm"
   viewBox="0 0 210 297"
   version="1.1"
   id="svg8"
   inkscape:version="0.92.5 (2060ec1f9f, 2020-04-08)"
   sodipodi:docname="map.svg">
  <defs
     id="defs2" />
  <sodipodi:namedview
     id="base"
     pagecolor="#ffffff"
     bordercolor="#666666"
     borderopacity="1.0"
     inkscape:pageopacity="0.0"
     inkscape:pageshadow="2"
     inkscape:zoom="0.98994949"
     inkscape:cx="417.62698"
     inkscape:cy="653.82155"
     inkscape:document-units="mm"
     inkscape:current-layer="layer1"
     showgrid="false"
     inkscape:window-width="1848"
     inkscape:window-height="1016"
     inkscape:window-x="1992"
     inkscape:window-y="27"
     inkscape:window-maximized="1" />
  <metadata
     id="metadata5">
    <rdf:RDF>
      <cc:Work
         rdf:about="">
        <dc:format>image/svg+xml</dc:format>
        <dc:type
           rdf:resource="http://purl.org/dc/dcmitype/StillImage" />
        <dc:title></dc:title>
      </cc:Work>
    </rdf:RDF>
  </metadata>
  <g
     inkscape:label="Layer 1"
     inkscape:groupmode="layer"
     id="layer1">
    <rect
       style="opacity:1;fill:#9cc9ff;fill-opacity:1;stroke:#000012;stroke-width:0.99921072;stroke-linecap:round;stroke-linejoin:round;stroke-miterlimit:4;stroke-dasharray:none;stroke-dashoffset:0;stroke-opacity:1"
       id="rect900"
       width="178.91745"
       height="167.36263"
       x="9.1818638"
       y="38.907722"
       ry="0" />
    <path
       style="opacity:1;fill:#6fa456;fill-opacity:1;stroke:#000012;stroke-width:0.53993249;stroke-linecap:round;stroke-linejoin:round;stroke-miterlimit:4;stroke-dasharray:none;stroke-dashoffset:0;stroke-opacity:1"
       d="m 422.07608,679.86353 c -0.24332,-0.39371 7.4e-4,-0.71584 0.54236,-0.71584 0.54163,0 1.70643,-0.82997 2.58844,-1.84437 0.95898,-1.10293 2.03926,-1.67722 2.68723,-1.42857 0.59596,0.22869 1.37871,0.4158 1.73943,0.4158 0.96346,0 0.79893,1.8551 -0.23699,2.67217 -1.34446,1.06043 -6.80643,1.73254 -7.32047,0.90081 z"
       id="path834"
       inkscape:connector-curvature="0"
       transform="scale(0.26458333)" />
    <path
       style="opacity:1;fill:#6fa456;fill-opacity:1;stroke:#000012;stroke-width:0.53993249;stroke-linecap:round;stroke-linejoin:round;stroke-miterlimit:4;stroke-dasharray:none;stroke-dashoffset:0;stroke-opacity:1"
       d="m 479.00684,698.25219 c -0.89321,-1.07626 -1.01604,-2.09449 -0.92074,-7.63306 0.0573,-3.32836 0.37376,-4.18576 2.20651,-5.97761 1.17681,-1.15055 2.13966,-2.53379 2.13966,-3.07386 0,-0.68089 0.54749,-0.50591 1.78571,0.57071 0.98215,0.85396 1.78572,1.80494 1.78572,2.11328 0,0.30834 -1.00706,1.7076 -2.23792,3.10946 -1.23085,1.40187 -2.04392,2.74284 -1.80682,2.97994 0.23711,0.23711 -0.25368,1.39279 -1.09063,2.56818 -1.28034,1.79806 -1.38099,2.36243 -0.63454,3.55769 1.06211,1.70071 -0.007,3.25571 -1.22695,1.78527 z"
       id="path836"
       inkscape:connector-curvature="0"
       transform="scale(0.26458333)" />
    <path
       style="opacity:1;fill:#6fa456;fill-opacity:1;stroke:#000012;stroke-width:0.53993249;stroke-linecap:round;stroke-linejoin:round;stroke-miterlimit:4;stroke-dasharray:none;stroke-dashoffset:0;stroke-opacity:1"
       d="m 428.66343,717.93951 c -0.49929,-0.86488 -0.19223,-5.78313 0.3979,-6.37326 0.77613,-0.77613 0.61569,-3.69985 -0.23178,-4.22361 -0.41007,-0.25343 -1.22141,-0.0659 -1.80298,0.41677 -0.58157,0.48267 -1.2907,0.63592 -1.57585,0.34056 -0.28515,-0.29535 0.20476,-1.02322 1.08869,-1.61748 0.88393,-0.59426 1.60714,-1.58355 1.60714,-2.19841 0,-0.82391 0.52692,-0.61313 2.00337,0.8014 1.11777,1.07089 2.81928,1.91936 3.84908,1.91936 1.56961,0 1.91893,0.40068 2.33519,2.67857 0.26921,1.47321 0.97776,3.43614 1.57456,4.36207 1.27106,1.97203 0.19654,3.91809 -1.32387,2.39768 -0.65367,-0.65366 -1.10273,-0.62285 -1.96429,0.13479 -1.37352,1.20786 -5.50125,2.15129 -5.95716,1.36156 z"
       id="path838"
       inkscape:connector-curvature="0"
       transform="scale(0.26458333)" />
    <path
       style="opacity:1;fill:#6fa456;fill-opacity:1;stroke:#000012;stroke-width:0.53993249;stroke-linecap:round;stroke-linejoin:round;stroke-miterlimit:4;stroke-dasharray:none;stroke-dashoffset:0;stroke-opacity:1"
       d="m 413.68534,691.11198 c -0.91224,-2.48062 1.07481,-3.41903 3.43184,-1.62072 1.2001,0.91563 1.24247,1.15424 0.31509,1.77478 -1.48336,0.99255 -3.35355,0.91566 -3.74693,-0.15406 z"
       id="path840"
       inkscape:connector-curvature="0"
       transform="scale(0.26458333)" />
    <path
       style="opacity:1;fill:#6fa456;fill-opacity:1;stroke:#000012;stroke-width:0.13498312;stroke-linecap:round;stroke-linejoin:round;stroke-miterlimit:4;stroke-dasharray:none;stroke-dashoffset:0;stroke-opacity:1"
       d="m 467.50559,701.38 c -0.11786,-0.11786 -0.21429,-0.33366 -0.21429,-0.47957 0,-0.1459 -0.1639,-0.43973 -0.36421,-0.65296 -0.20032,-0.21323 -0.41376,-0.69301 -0.47432,-1.06619 -0.0606,-0.37317 -0.25827,-0.82666 -0.43936,-1.00775 -0.48872,-0.48872 -0.42698,-1.32841 0.12424,-1.68958 0.35883,-0.23512 0.69861,-0.27425 1.6279,-0.18747 1.00957,0.0943 1.25896,0.1918 1.77675,0.69481 0.70843,0.68819 0.81102,1.50509 0.25249,2.01055 -0.1945,0.17602 -0.40242,0.58005 -0.46204,0.89783 -0.11777,0.6278 -0.98066,1.69461 -1.37067,1.69461 -0.13321,0 -0.33864,-0.0964 -0.45649,-0.21428 z m 0.69459,-1.44827 c -0.30037,-0.30037 -0.53843,0.0724 -0.42286,0.66211 l 0.1014,0.51741 0.25803,-0.49246 c 0.18618,-0.35534 0.20384,-0.54665 0.0634,-0.68706 z m 0.34112,-1.37316 c 0.48046,-0.48046 0.45007,-0.86273 -0.0791,-0.99555 -0.7245,-0.18184 -1.01604,0.26052 -0.70532,1.07023 0.14428,0.37599 0.35372,0.35606 0.78446,-0.0747 z"
       id="path848"
       inkscape:connector-curvature="0"
       transform="scale(0.26458333)" />
    <path
       style="opacity:1;fill:#6fa456;fill-opacity:1;stroke:#000012;stroke-width:0.13498312;stroke-linecap:round;stroke-linejoin:round;stroke-miterlimit:4;stroke-dasharray:none;stroke-dashoffset:0;stroke-opacity:1"
       d="m 467.82702,698.20142 c 0,-0.45238 0.0694,-0.53571 0.44642,-0.53571 0.48869,0 0.61669,0.47261 0.23215,0.85714 -0.38115,0.38115 -0.67857,0.24027 -0.67857,-0.32143 z"
       id="path850"
       inkscape:connector-curvature="0"
       transform="scale(0.26458333)" />
    <path
       style="opacity:1;fill:#6fa456;fill-opacity:1;stroke:#000012;stroke-width:0.13498312;stroke-linecap:round;stroke-linejoin:round;stroke-miterlimit:4;stroke-dasharray:none;stroke-dashoffset:0;stroke-opacity:1"
       d="m 420.60253,690.48072 c -0.32755,-0.1833 -0.36342,-0.86997 -0.0612,-1.17215 0.35698,-0.35698 1.03154,-0.25669 1.19206,0.17723 0.13991,0.37822 0.14902,0.3748 0.26841,-0.10088 0.0951,-0.37889 0.21475,-0.47943 0.51906,-0.43616 0.34089,0.0485 0.39547,0.16642 0.39547,0.85459 v 0.79835 l -1.01912,0.0166 c -0.56052,0.009 -1.14311,-0.0528 -1.29465,-0.13759 z"
       id="path852"
       inkscape:connector-curvature="0"
       transform="scale(0.26458333)" />
    <path
       style="opacity:1;fill:#6fa456;fill-opacity:1;stroke:#000012;stroke-width:0.13498312;stroke-linecap:round;stroke-linejoin:round;stroke-miterlimit:4;stroke-dasharray:none;stroke-dashoffset:0;stroke-opacity:1"
       d="m 421.23397,694.04701 c -0.23778,-0.12132 -0.45984,-0.30419 -0.49347,-0.40638 -0.0884,-0.26864 0.32869,-0.74213 0.76832,-0.87216 0.30173,-0.0892 0.42323,-0.003 0.60069,0.42519 0.3899,0.9413 0.0143,1.30737 -0.87554,0.85335 z"
       id="path854"
       inkscape:connector-curvature="0"
       transform="scale(0.26458333)" />
    <path
       style="opacity:1;fill:#6fa456;fill-opacity:1;stroke:#000012;stroke-width:0.13498312;stroke-linecap:round;stroke-linejoin:round;stroke-miterlimit:4;stroke-dasharray:none;stroke-dashoffset:0;stroke-opacity:1"
       d="m 434.53357,692.80455 c -0.15289,-0.21828 -0.27798,-0.53034 -0.27798,-0.69346 0,-0.16312 -0.16072,-0.33861 -0.35715,-0.38998 -0.47095,-0.12315 -0.47965,-1.00749 -0.0156,-1.58026 0.47321,-0.58401 1.7986,-0.56387 2.73122,0.0415 0.58638,0.38063 0.66295,0.51509 0.66964,1.17594 0.008,0.75167 -0.32687,1.3074 -0.7869,1.3074 -0.12828,0 -0.33327,0.12054 -0.45554,0.26786 -0.33772,0.40692 -1.183,0.33459 -1.50773,-0.12902 z m 0.75922,-0.86652 c -0.0352,-0.10558 -0.14033,-0.19196 -0.23363,-0.19196 -0.0933,0 -0.19844,0.0864 -0.23363,0.19196 -0.0352,0.10558 0.0699,0.19197 0.23363,0.19197 0.16369,0 0.26882,-0.0864 0.23363,-0.19197 z m 1.4628,-0.73661 c 0,-0.28846 -0.0528,-0.34005 -0.19873,-0.19413 -0.1093,0.1093 -0.14473,0.28609 -0.0787,0.39286 0.18472,0.29887 0.27748,0.23244 0.27748,-0.19873 z"
       id="path856"
       inkscape:connector-curvature="0"
       transform="scale(0.26458333)" />
    <path
       style="opacity:1;fill:#6fa456;fill-opacity:1;stroke:#000012;stroke-width:0.13498312;stroke-linecap:round;stroke-linejoin:round;stroke-miterlimit:4;stroke-dasharray:none;stroke-dashoffset:0;stroke-opacity:1"
       d="m 423.78316,682.54084 c -0.21072,-0.0405 -0.52452,-0.22988 -0.69732,-0.42082 -0.1728,-0.19094 -0.39699,-0.34717 -0.49821,-0.34717 -0.10121,0 -0.34992,-0.15547 -0.55268,-0.34549 -0.31098,-0.29145 -0.75216,-0.36532 -2.82036,-0.47221 -2.29824,-0.11879 -2.46871,-0.15266 -2.72322,-0.54108 -0.14932,-0.2279 -0.2715,-0.56184 -0.2715,-0.74208 0,-0.6507 0.35629,-0.75628 2.55219,-0.75628 1.85323,0 2.18143,-0.0455 2.57766,-0.35714 0.24972,-0.19643 0.68061,-0.35715 0.95755,-0.35715 0.49922,0 0.80398,-0.25018 1.76975,-1.45282 0.24553,-0.30576 0.63789,-0.74582 0.87191,-0.97792 0.34955,-0.34668 0.38582,-0.46978 0.20323,-0.68978 -0.51295,-0.61806 0.45658,-1.14905 1.27221,-0.69675 0.62134,0.34457 0.68836,0.30711 0.68836,-0.38476 0,-0.72273 0.40744,-1.00277 0.83577,-0.57444 0.35238,0.35238 0.16359,0.9642 -0.35383,1.14669 -0.26865,0.0947 0.0985,0.17354 1.16251,0.24947 1.4504,0.10351 1.60872,0.15487 2.34996,0.76226 0.71677,0.58734 0.79431,0.72589 0.78992,1.41145 -0.005,0.85906 0.24638,1.39375 1.05207,2.23339 0.51252,0.53412 0.6463,0.58036 1.67909,0.58036 0.89117,0 1.20368,-0.0765 1.51795,-0.37178 0.62113,-0.58352 2.75227,-0.70223 2.75227,-0.1533 0,0.10032 0.16454,0.40494 0.36563,0.67694 0.28615,0.38703 0.32901,0.59085 0.19718,0.9376 -0.3367,0.88558 -0.61635,0.96877 -3.04585,0.90603 -1.92316,-0.0497 -2.30252,-0.10788 -2.61775,-0.40178 -0.20276,-0.18904 -0.45936,-0.34371 -0.57023,-0.34371 -0.11087,0 -0.30659,-0.14992 -0.43493,-0.33315 -0.12834,-0.18324 -0.49834,-0.39136 -0.82221,-0.46249 -0.32388,-0.0711 -0.68472,-0.28282 -0.80188,-0.47042 -0.27485,-0.4401 -0.70202,-0.43392 -1.10924,0.0161 -0.17777,0.19643 -0.40602,0.35714 -0.50724,0.35714 -0.10122,0 -0.37634,0.1808 -0.61138,0.40179 -0.36692,0.34497 -0.66061,0.41037 -2.07688,0.46254 l -1.64953,0.0608 -0.34534,0.73533 c -0.3616,0.76994 -0.4603,0.83492 -1.08563,0.71471 z m 0.651,-1.21442 c 0,-0.14732 -0.12054,-0.26785 -0.26786,-0.26785 -0.27885,0 -0.35428,0.21119 -0.14881,0.41666 0.20547,0.20547 0.41667,0.13005 0.41667,-0.14881 z m 10.35714,-0.80357 c 0,-0.0982 -0.34152,-0.17292 -0.75893,-0.16602 -0.58777,0.01 -0.67838,0.0472 -0.40178,0.16602 0.49799,0.214 1.16071,0.214 1.16071,0 z m -8.98614,-0.18174 c 1.90411,-0.30903 3.47571,-0.87898 4.01467,-1.45593 0.89901,-0.9624 0.90675,-2.5514 0.0134,-2.75258 -0.2686,-0.0605 -0.90348,-0.23497 -1.41085,-0.38774 -1.22614,-0.3692 -1.71039,-0.16254 -3.4691,1.48047 -1.21928,1.13906 -1.64586,1.41586 -2.71067,1.75888 -0.41254,0.13289 -0.59164,0.61844 -0.36242,0.98256 0.32993,0.5241 2.01314,0.68464 3.92498,0.37434 z m 11.96,-0.0208 c -0.23629,-0.13735 -0.38554,-0.13581 -0.52678,0.005 -0.14372,0.14372 -0.0545,0.1956 0.32971,0.19164 0.4618,-0.005 0.48611,-0.0291 0.19707,-0.19707 z m -18.99011,-0.50934 c 0.76457,-0.002 1.17493,-0.0687 1.10554,-0.18101 -0.0607,-0.0982 -0.78866,-0.17858 -1.61768,-0.17858 -1.26913,0 -1.50732,0.0456 -1.50732,0.28869 0,0.21223 0.1064,0.26017 0.40178,0.18101 0.22098,-0.0592 0.94894,-0.10877 1.61768,-0.11011 z M 432.64844,679.63 c 0,-0.0982 -0.12252,-0.17858 -0.27227,-0.17858 -0.14976,0 -0.34866,-0.20089 -0.44201,-0.44642 -0.0934,-0.24554 -0.29895,-0.44643 -0.45689,-0.44643 -0.16617,0 -0.24332,0.094 -0.18311,0.22321 0.0572,0.12277 0.15253,0.35954 0.21178,0.52615 0.1443,0.40579 1.1425,0.68718 1.1425,0.32207 z"
       id="path860"
       inkscape:connector-curvature="0"
       transform="scale(0.26458333)" />
    <path
       style="opacity:1;fill:#6fa456;fill-opacity:1;stroke:#000012;stroke-width:0.13498312;stroke-linecap:round;stroke-linejoin:round;stroke-miterlimit:4;stroke-dasharray:none;stroke-dashoffset:0;stroke-opacity:1"
       d="m 386.21659,678.28207 c -0.0962,-0.25295 -0.43128,-0.5632 -0.75451,-0.69853 -0.80444,-0.33683 -0.86839,-0.43705 -0.56969,-0.89292 0.53689,-0.8194 1.79514,-1.05726 2.39891,-0.45348 0.40043,0.40043 0.44185,0.84853 0.16918,1.83036 -0.15096,0.54359 -0.26925,0.66964 -0.62842,0.66964 -0.30988,0 -0.4943,-0.13635 -0.61547,-0.45507 z"
       id="path862"
       inkscape:connector-curvature="0"
       transform="scale(0.26458333)" />
    <path
       style="opacity:1;fill:#6fa456;fill-opacity:1;stroke:#000012;stroke-width:0.13498312;stroke-linecap:round;stroke-linejoin:round;stroke-miterlimit:4;stroke-dasharray:none;stroke-dashoffset:0;stroke-opacity:1"
       d="m 410.37685,705.81977 c -0.69402,-0.7145 -0.85413,-1.6719 -0.33057,-1.97674 0.18438,-0.10735 0.46136,-0.3358 0.61552,-0.50768 0.3769,-0.42019 0.5675,-0.39558 1.23793,0.15983 0.51824,0.42933 0.57014,0.56425 0.57014,1.48214 0,0.5554 -0.0964,1.10625 -0.21428,1.22411 -0.41738,0.41737 -1.27106,0.24395 -1.87874,-0.38166 z"
       id="path864"
       inkscape:connector-curvature="0"
       transform="scale(0.26458333)" />
    <path
       style="opacity:1;fill:#6fa456;fill-opacity:1;stroke:#000012;stroke-width:0.13498312;stroke-linecap:round;stroke-linejoin:round;stroke-miterlimit:4;stroke-dasharray:none;stroke-dashoffset:0;stroke-opacity:1"
       d="m 405.49055,704.52259 c -0.17778,-0.21421 -0.12446,-0.36026 0.28908,-0.79191 0.59686,-0.62298 1.48572,-0.70616 2.47991,-0.23207 0.70087,0.33422 0.91936,0.70417 0.62522,1.05859 -0.29054,0.35008 -3.09872,0.32144 -3.39421,-0.0346 z"
       id="path866"
       inkscape:connector-curvature="0"
       transform="scale(0.26458333)" />
    <path
       style="opacity:1;fill:#6fa456;fill-opacity:1;stroke:#000012;stroke-width:0.13498312;stroke-linecap:round;stroke-linejoin:round;stroke-miterlimit:4;stroke-dasharray:none;stroke-dashoffset:0;stroke-opacity:1"
       d="m 408.97072,708.11125 c -0.23619,-0.36048 -0.25008,-0.49916 -0.0715,-0.71429 0.28982,-0.34921 0.87448,-0.34211 1.01048,0.0123 0.12562,0.32736 -0.20877,1.14933 -0.46757,1.14933 -0.0981,0 -0.31017,-0.2013 -0.47138,-0.44732 z"
       id="path868"
       inkscape:connector-curvature="0"
       transform="scale(0.26458333)" />
    <path
       style="opacity:1;fill:#6fa456;fill-opacity:1;stroke:#000012;stroke-width:0.13498312;stroke-linecap:round;stroke-linejoin:round;stroke-miterlimit:4;stroke-dasharray:none;stroke-dashoffset:0;stroke-opacity:1"
       d="m 451.75559,715.29293 c -0.30646,-0.15421 -0.46349,-0.39879 -0.50083,-0.78006 -0.0475,-0.48491 0.0185,-0.58084 0.52003,-0.75567 0.67884,-0.23664 0.68476,-0.23259 0.87158,0.59573 0.1083,0.4802 0.0784,0.71098 -0.11766,0.907 -0.3119,0.3119 -0.22617,0.30824 -0.77312,0.033 z"
       id="path870"
       inkscape:connector-curvature="0"
       transform="scale(0.26458333)" />
    <path
       style="opacity:1;fill:#6fa456;fill-opacity:1;stroke:#000012;stroke-width:0.13498312;stroke-linecap:round;stroke-linejoin:round;stroke-miterlimit:4;stroke-dasharray:none;stroke-dashoffset:0;stroke-opacity:1"
       d="m 401.48766,666.52042 c -0.29468,-0.12571 -0.64938,-0.36544 -0.78823,-0.53274 -0.2187,-0.26351 -0.21479,-0.34184 0.0292,-0.58585 0.44144,-0.44143 1.52651,-0.17444 1.67365,0.41182 0.17263,0.68782 -0.22989,0.99887 -0.91464,0.70677 z"
       id="path872"
       inkscape:connector-curvature="0"
       transform="scale(0.26458333)" />
    <path
       style="opacity:1;fill:#6fa456;fill-opacity:1;stroke:#000012;stroke-width:0.13498312;stroke-linecap:round;stroke-linejoin:round;stroke-miterlimit:4;stroke-dasharray:none;stroke-dashoffset:0;stroke-opacity:1"
       d="m 427.17912,669.51307 c -0.17659,-0.70361 0.1274,-1.04379 0.93277,-1.04379 0.77403,0 0.92129,0.24738 0.61961,1.04085 -0.14895,0.39176 -0.29323,0.47701 -0.80738,0.47701 -0.52855,0 -0.64454,-0.0738 -0.745,-0.47407 z"
       id="path874"
       inkscape:connector-curvature="0"
       transform="scale(0.26458333)" />
    <path
       style="opacity:1;fill:#6fa456;fill-opacity:1;stroke:#000012;stroke-width:0.13498312;stroke-linecap:round;stroke-linejoin:round;stroke-miterlimit:4;stroke-dasharray:none;stroke-dashoffset:0;stroke-opacity:1"
       d="m 481.8619,680.84311 c -0.35853,-0.20065 -0.37942,-1.26949 -0.0305,-1.55909 0.20745,-0.17217 0.31008,-0.0938 0.55606,0.42456 0.16591,0.34964 0.37286,0.6357 0.45988,0.6357 0.087,0 0.15823,0.11117 0.15823,0.24704 0,0.30339 -0.75462,0.46952 -1.14369,0.25179 z"
       id="path876"
       inkscape:connector-curvature="0"
       transform="scale(0.26458333)" />
    <path
       style="opacity:1;fill:#6fa456;fill-opacity:1;stroke:#000012;stroke-width:0.13498312;stroke-linecap:round;stroke-linejoin:round;stroke-miterlimit:4;stroke-dasharray:none;stroke-dashoffset:0;stroke-opacity:1"
       d="m 478.30321,700.40381 c -0.0655,-0.0655 -0.11905,-0.34099 -0.11905,-0.61225 0,-0.27126 -0.14063,-0.63234 -0.3125,-0.80239 -0.45657,-0.45175 -0.95944,-2.064 -0.73,-2.34046 0.10104,-0.12175 0.19475,-0.70114 0.20823,-1.28752 0.0202,-0.88075 -0.0455,-1.14062 -0.37778,-1.49436 -0.58217,-0.6197 -0.64281,-2.60582 -0.0978,-3.20207 0.57984,-0.63431 0.76509,-1.86772 0.5342,-3.55665 -0.14287,-1.04504 -0.1529,-1.02036 0.71527,-1.75906 0.17007,-0.1447 0.55343,-0.38577 0.85193,-0.53571 0.2985,-0.14995 0.64061,-0.47352 0.76025,-0.71906 0.26509,-0.54407 0.72451,-1.1455 1.26066,-1.65035 0.48933,-0.46078 0.50718,-0.79964 0.0676,-1.28457 -0.46156,-0.50922 -0.68985,-3.60449 -0.30443,-4.12766 0.2486,-0.33745 0.27603,-0.32925 0.89396,0.26725 0.35061,0.33847 0.63748,0.75707 0.63748,0.93023 0,0.40525 1.35145,1.92006 3.62086,4.05856 0.27272,0.25699 0.53917,0.66815 0.5921,0.91368 0.0529,0.24554 0.21661,0.66838 0.36372,0.93964 0.32187,0.59354 0.1818,1.15016 -0.40573,1.61231 -0.2331,0.18336 -0.63375,0.77715 -0.89035,1.31954 -0.33434,0.70674 -0.62487,1.05609 -1.02535,1.23295 -1.24094,0.54802 -1.85644,1.47651 -1.53654,2.3179 0.0958,0.25193 0.17415,0.52515 0.17415,0.60715 0,0.082 -0.52232,0.79603 -1.16072,1.58672 -1.03617,1.28337 -1.16071,1.52221 -1.16071,2.22591 0,0.5179 0.1225,0.94403 0.35714,1.24233 0.19643,0.24971 0.35715,0.70361 0.35715,1.00864 0,0.30504 0.0919,0.70183 0.2043,0.88176 0.29588,0.47378 -0.43147,1.41316 -1.20682,1.55862 -0.3197,0.06 -0.71952,0.2618 -0.88849,0.4485 -0.29741,0.32864 -1.14024,0.46298 -1.3828,0.22042 z m 2.23296,-1.60506 c 0.45829,-0.41475 0.41153,-1.38945 -0.12161,-2.5347 -0.24458,-0.52538 -0.44469,-1.05138 -0.44469,-1.1689 0,-0.11752 0.49289,-1.0355 1.09532,-2.03995 0.76015,-1.26746 1.10711,-2.03553 1.13389,-2.51012 0.0436,-0.77315 0.0689,-0.82455 1.0532,-2.13808 0.39364,-0.52533 0.90462,-1.02696 1.1355,-1.11475 0.23088,-0.0878 0.3961,-0.26277 0.36714,-0.38886 -0.0496,-0.21614 1.22222,-2.11905 1.49759,-2.24065 0.29385,-0.12976 -0.30206,-1.08822 -1.33698,-2.15042 -1.34025,-1.37558 -2.62423,-2.03971 -2.62423,-1.35735 0,0.55873 -0.73986,1.69406 -2.13616,3.27797 -0.78872,0.89469 -1.49458,1.62647 -1.56858,1.62617 -0.074,-3e-4 -0.13223,0.0999 -0.1294,0.22267 0.003,0.12277 -0.0949,0.527 -0.21721,0.89829 -0.12229,0.37128 -0.27676,1.39584 -0.34326,2.27678 -0.0665,0.88095 -0.18974,1.60172 -0.27387,1.60172 -0.0841,0 -0.15295,0.48688 -0.15295,1.08197 0,0.59508 0.0699,1.03876 0.15534,0.98596 0.0854,-0.0528 0.19499,0.72594 0.24346,1.73053 0.10038,2.08049 0.43972,3.11667 1.2417,3.79149 0.61906,0.5209 0.97479,0.55838 1.4258,0.15023 z m 2.46942,-18.34332 c 0,-0.0371 -0.14063,-0.1777 -0.3125,-0.3125 -0.28323,-0.22212 -0.28954,-0.2158 -0.0674,0.0674 0.23328,0.29746 0.37992,0.39205 0.37992,0.24508 z m -1.70406,-2.42024 c 0.0565,-0.0914 0.0211,-0.2167 -0.0787,-0.27839 -0.0998,-0.0617 -0.18149,0.0131 -0.18149,0.16623 0,0.31366 0.10715,0.35985 0.26023,0.11216 z"
       id="path878"
       inkscape:connector-curvature="0"
       transform="scale(0.26458333)" />
    <path
       style="opacity:1;fill:#6fa456;fill-opacity:1;stroke:#000012;stroke-width:0.13498312;stroke-linecap:round;stroke-linejoin:round;stroke-miterlimit:4;stroke-dasharray:none;stroke-dashoffset:0;stroke-opacity:1"
       d="m 485.06054,706.88471 c -0.0329,-0.11063 -0.10127,-0.44221 -0.15199,-0.73686 -0.0507,-0.29464 -0.14267,-0.66597 -0.2043,-0.82519 -0.19066,-0.49251 0.38704,-0.87123 1.32898,-0.87123 0.70895,0 0.8756,0.0624 0.95262,0.35696 0.0513,0.19633 0.0299,0.3962 -0.0477,0.44415 -0.0776,0.048 -0.30673,0.43961 -0.5092,0.87036 -0.26708,0.56818 -0.49722,0.80784 -0.83839,0.87306 -0.26786,0.0512 -0.49596,0.003 -0.53,-0.11125 z"
       id="path880"
       inkscape:connector-curvature="0"
       transform="scale(0.26458333)" />
    <path
       style="opacity:1;fill:#6fa456;fill-opacity:1;stroke:#000012;stroke-width:0.13498312;stroke-linecap:round;stroke-linejoin:round;stroke-miterlimit:4;stroke-dasharray:none;stroke-dashoffset:0;stroke-opacity:1"
       d="m 392.79513,589.37281 c -0.12979,-0.14146 -0.43686,-0.54103 -0.6824,-0.88795 -0.24554,-0.34691 -0.53604,-0.63296 -0.64556,-0.63566 -0.36063,-0.009 -1.14015,-0.73872 -1.14015,-1.06744 0,-0.17728 0.12053,-0.42236 0.26785,-0.54462 0.14732,-0.12227 0.26786,-0.44779 0.26786,-0.7234 0,-0.68795 0.46352,-1.11787 1.05246,-0.97617 0.25597,0.0616 0.54575,0.213 0.64397,0.33648 0.0982,0.12348 0.3204,0.27774 0.49375,0.34279 0.17335,0.0651 0.38937,0.31344 0.48006,0.55195 0.0907,0.23851 0.244,0.48256 0.34072,0.54234 0.0967,0.0598 0.2243,0.32874 0.28352,0.5977 0.0627,0.2847 0.32957,0.61612 0.63874,0.79322 0.52745,0.30212 0.69156,0.86337 0.39077,1.33642 -0.35033,0.55095 -1.98339,0.77925 -2.39159,0.33434 z m 1.28189,-1.1317 c 0,-0.0764 -0.16072,-0.27649 -0.35715,-0.44468 -0.2103,-0.18007 -0.35714,-0.52677 -0.35714,-0.84326 0,-0.35497 -0.0895,-0.53746 -0.26374,-0.53746 -0.14506,0 -0.3989,-0.20628 -0.5641,-0.4584 l -0.30036,-0.45841 -0.40773,0.50305 -0.40774,0.50305 0.57005,0.57569 c 0.31353,0.31664 0.71067,0.73851 0.88255,0.9375 0.29861,0.34573 1.20536,0.51342 1.20536,0.22292 z"
       id="path884"
       inkscape:connector-curvature="0"
       transform="scale(0.26458333)" />
    <path
       style="opacity:1;fill:#6fa456;fill-opacity:1;stroke:#000012;stroke-width:0.13498312;stroke-linecap:round;stroke-linejoin:round;stroke-miterlimit:4;stroke-dasharray:none;stroke-dashoffset:0;stroke-opacity:1"
       d="m 392.42985,587.35321 c -0.80302,-0.82047 -0.82019,-0.86037 -0.52487,-1.21975 l 0.3053,-0.37155 0.48694,0.49409 c 0.26782,0.27174 0.48694,0.6089 0.48694,0.74924 0,0.14034 0.16654,0.46689 0.3701,0.72567 0.35014,0.44513 0.35219,0.47051 0.0379,0.47051 -0.18269,0 -0.70575,-0.38169 -1.16234,-0.84821 z"
       id="path886"
       inkscape:connector-curvature="0"
       transform="scale(0.26458333)" />
    <path
       style="opacity:1;fill:#6fa456;fill-opacity:1;stroke:#000012;stroke-width:0.13498312;stroke-linecap:round;stroke-linejoin:round;stroke-miterlimit:4;stroke-dasharray:none;stroke-dashoffset:0;stroke-opacity:1"
       d="m 400.83961,586.85178 c -0.23664,-0.23665 -0.24739,-0.41508 -0.0719,-1.19414 0.20984,-0.93172 0.54706,-1.26851 0.82725,-0.82619 0.32082,0.50645 0.0617,2.29855 -0.33237,2.29855 -0.0796,0 -0.26993,-0.1252 -0.42295,-0.27822 z"
       id="path888"
       inkscape:connector-curvature="0"
       transform="scale(0.26458333)" />
    <path
       style="opacity:1;fill:#6fa456;fill-opacity:1;stroke:#000012;stroke-width:0.13498312;stroke-linecap:round;stroke-linejoin:round;stroke-miterlimit:4;stroke-dasharray:none;stroke-dashoffset:0;stroke-opacity:1"
       d="m 401.02945,588.05495 c -0.15384,-0.0668 -0.51522,-0.30928 -0.80306,-0.53893 -0.45587,-0.36372 -0.5192,-0.52457 -0.49122,-1.24757 0.0231,-0.59724 0.13565,-0.91384 0.40127,-1.12893 0.20303,-0.1644 0.36915,-0.41806 0.36915,-0.56369 0,-0.57375 1.00492,-0.63644 1.68073,-0.10485 0.41337,0.32516 0.47684,0.5023 0.46386,1.29464 -0.008,0.50487 0.0399,1.15149 0.10706,1.43693 0.0925,0.39328 0.0426,0.57711 -0.20606,0.75893 -0.34641,0.25331 -1.05333,0.29672 -1.52173,0.0935 z m 0.72614,-2.2765 c 0,-0.56546 -0.0951,-1.00507 -0.24417,-1.12879 -0.33533,-0.2783 -0.56635,0.0309 -0.84252,1.12766 -0.21004,0.83415 -0.20066,0.89057 0.20226,1.21684 0.40243,0.32587 0.4335,0.32712 0.65347,0.0263 0.12703,-0.17371 0.23096,-0.73261 0.23096,-1.24199 z"
       id="path890"
       inkscape:connector-curvature="0"
       transform="scale(0.26458333)" />
    <path
       style="opacity:1;fill:#6fa456;fill-opacity:1;stroke:#000012;stroke-width:0.13498312;stroke-linecap:round;stroke-linejoin:round;stroke-miterlimit:4;stroke-dasharray:none;stroke-dashoffset:0;stroke-opacity:1"
       d="m 395.0495,585.08675 c -0.53471,-0.81608 0.0393,-1.8766 0.76859,-1.41997 0.44257,0.27711 0.51639,1.33064 0.11385,1.62498 -0.4391,0.32108 -0.55544,0.29405 -0.88244,-0.20501 z m 0.63466,-0.62479 c 0,-0.19063 -0.0804,-0.39626 -0.17857,-0.45696 -0.10128,-0.0626 -0.17857,0.0874 -0.17857,0.3466 0,0.25133 0.0804,0.45697 0.17857,0.45697 0.0982,0 0.17857,-0.15597 0.17857,-0.34661 z"
       id="path892"
       inkscape:connector-curvature="0"
       transform="scale(0.26458333)" />
    <path
       style="opacity:1;fill:#6fa456;fill-opacity:1;stroke:#000012;stroke-width:0.13498312;stroke-linecap:round;stroke-linejoin:round;stroke-miterlimit:4;stroke-dasharray:none;stroke-dashoffset:0;stroke-opacity:1"
       d="m 531.68235,414.29058 c -0.24507,-0.27079 -0.41471,-0.3163 -0.73093,-0.19607 -0.54242,0.20623 -1.41288,-0.0368 -1.48571,-0.41486 -0.0439,-0.22762 0.0732,-0.29965 0.48695,-0.29965 0.38396,0 0.63101,-0.13174 0.83721,-0.44643 0.22462,-0.34283 0.44558,-0.44643 0.95212,-0.44643 0.36279,0 0.81472,0.11341 1.00429,0.25202 0.32741,0.23941 0.33053,0.29081 0.0623,1.02679 -0.32008,0.87835 -0.662,1.03762 -1.12625,0.52463 z"
       id="path896"
       inkscape:connector-curvature="0"
       transform="scale(0.26458333)" />
    <path
       style="opacity:1;fill:#6fa456;fill-opacity:1;stroke:#000012;stroke-width:0.19089496;stroke-linecap:round;stroke-linejoin:round;stroke-miterlimit:4;stroke-dasharray:none;stroke-dashoffset:0;stroke-opacity:1"
       d="m 212.7473,449.6342 c -0.40267,-0.90283 -0.82093,-1.6415 -0.92947,-1.6415 -0.10854,0 -0.19734,-0.13252 -0.19734,-0.29449 0,-0.31106 -0.30801,-0.69504 -1.38441,-1.72581 -2.4666,-2.36206 -2.68269,-2.638 -2.53296,-3.23456 0.29084,-1.15882 -0.0494,-1.56163 -1.33981,-1.58606 -1.11471,-0.0211 -1.25859,-0.10788 -2.50837,-1.51284 -0.81285,-0.91378 -1.32582,-1.72369 -1.32582,-2.09326 0,-0.33155 -0.17047,-0.74429 -0.37881,-0.9172 -0.22677,-0.1882 -0.37881,-0.7404 -0.37881,-1.37586 0,-1.18468 -0.76471,-2.15967 -1.69389,-2.15967 -0.59392,0 -0.83149,-0.44835 -0.83149,-1.56921 0,-0.92199 -0.77948,-2.26217 -1.64594,-2.8299 -0.78366,-0.51347 -0.84687,-1.40927 -0.0994,-1.40927 0.29011,0 1.11206,-0.51139 1.82657,-1.13642 0.7145,-0.62503 1.48606,-1.13642 1.71457,-1.13642 0.22852,0 0.58752,-0.25569 0.79779,-0.56821 0.3823,-0.56821 0.3823,-0.5682 0.61362,0.31567 0.2031,0.77609 0.33996,0.89314 1.1222,0.95979 1.01483,0.0865 1.33373,-0.19466 1.6617,-1.46486 l 0.22822,-0.88389 h 1.7147 c 1.71102,0 1.71586,0.002 2.25609,0.93351 0.51039,0.88006 0.51799,0.97404 0.13274,1.6415 -0.22475,0.38939 -0.48322,1.12317 -0.57437,1.63062 -0.0912,0.50745 -0.33311,0.98687 -0.53767,1.06536 -0.66651,0.25577 -0.38983,1.26897 0.65324,2.39214 2.19467,2.36319 2.75517,4.07868 1.88056,5.75566 -0.50656,0.9713 -0.47775,1.4153 0.14304,2.20452 0.40429,0.51397 0.74574,0.6654 1.50033,0.6654 0.5373,0 1.0544,0.12536 1.14909,0.27858 0.0947,0.15322 0.18663,1.22507 0.20431,2.3819 l 0.0321,2.10331 0.88389,0.61024 c 0.48613,0.33563 0.84524,0.76954 0.79802,0.96424 -0.0472,0.1947 -0.14807,1.16749 -0.22411,2.16176 -0.11016,1.44059 -0.2615,1.94071 -0.7451,2.46225 -0.33378,0.35996 -0.75222,0.65448 -0.92987,0.65448 -0.17765,0 -0.65245,-0.73868 -1.05513,-1.6415 z"
       id="path898"
       inkscape:connector-curvature="0"
       transform="scale(0.26458333)" />
    <path
       style="opacity:1;fill:#6fa456;fill-opacity:1;stroke:#000012;stroke-width:0.75590552;stroke-linecap:round;stroke-linejoin:round;stroke-miterlimit:4;stroke-dasharray:none;stroke-dashoffset:0;stroke-opacity:1"
       d="m 664.23143,562.43598 c -2.2926,-0.23695 -3.60711,-1.03322 -4.209,-2.54962 -1.40636,-3.54317 -6.81111,-8.77105 -9.06779,-8.77105 -1.14249,0 -2.07725,-0.3818 -2.07725,-0.84846 0,-1.55134 -7.78763,-3.46964 -11.26558,-2.77503 -1.8599,0.37147 -4.29077,0.64769 -5.40194,0.61385 -1.11117,-0.0338 -3.25557,-0.0718 -4.76533,-0.0844 -1.50977,-0.0126 -3.01394,-0.45801 -3.34262,-0.9898 -0.92606,-1.49839 -3.31453,-1.14594 -5.42712,0.80086 -6.71991,6.1925 -8.44963,7.3236 -11.19942,7.3236 -2.41437,0 -2.85727,-0.33617 -2.32907,-1.76776 0.35872,-0.97228 1.03782,-2.029 1.50911,-2.34827 0.47127,-0.31927 1.04083,-2.03413 1.26568,-3.81079 0.37314,-2.94835 2.85714,-6.86602 7.31121,-11.53093 1.31067,-1.37271 1.42549,-2.05421 0.50172,-2.97799 -0.92376,-0.92376 -1.96066,-0.4586 -4.53095,2.03263 -1.83318,1.77679 -3.60067,3.23052 -3.92775,3.23052 -0.32709,0 -3.03287,-2.31853 -6.01284,-5.1523 -2.97996,-2.83376 -6.62414,-5.5903 -8.09819,-6.12563 -1.49446,-0.54273 -4.62259,-3.72187 -7.07106,-7.18633 -2.41505,-3.41714 -5.64106,-7.43423 -7.16892,-8.92687 -1.52785,-1.49262 -2.79228,-3.0997 -2.80984,-3.57127 -0.0578,-1.5524 -4.89155,-6.41321 -6.37754,-6.41321 -1.56351,0 -2.68191,-2.08588 -2.68191,-5.00188 0,-0.9934 -1.81827,-3.28824 -4.04061,-5.09965 -2.22233,-1.81141 -4.04061,-3.86048 -4.04061,-4.55351 0,-1.97625 -2.70882,-3.7313 -6.30515,-4.08509 -4.39903,-0.43278 -4.10947,-0.36223 -5.75173,-1.40141 -1.18127,-0.74748 -1.21264,-1.20402 -0.16912,-2.46139 0.70464,-0.84902 1.12475,-2.35579 0.9336,-3.34838 -0.19115,-0.99257 0.49804,-2.65029 1.53155,-3.68379 1.51265,-1.51266 1.74909,-2.74615 1.2124,-6.32506 -0.59891,-3.99386 -0.46142,-4.44595 1.35218,-4.44595 1.69521,0 2.00983,0.65557 1.96244,4.08922 -0.0567,4.10279 1.07684,6.60753 1.92077,4.24454 0.24803,-0.69448 1.09494,-1.26269 1.88201,-1.26269 1.33991,0 1.57194,-0.6825 1.83315,-5.39211 0.0567,-1.02112 1.41099,-2.90268 3.00967,-4.18125 3.92488,-3.13895 2.69939,-4.99655 -2.72417,-4.12929 -3.96658,0.63429 -4.04995,0.59142 -2.39851,-1.23341 0.941,-1.03979 1.71091,-2.43421 1.71091,-3.09869 0,-0.66449 1.06544,-1.61323 2.36763,-2.10833 1.3022,-0.49508 2.96163,-2.33421 3.68763,-4.08693 1.36863,-3.30416 1.17076,-3.26832 7.83434,-1.41896 2.86763,0.79587 2.96789,-0.9301 0.21399,-3.684 -2.78611,-2.78611 -8.7162,-1.80547 -10.31611,1.70596 -1.41564,3.10698 -7.62288,6.95799 -10.58876,6.56932 -2.78114,-0.36444 -3.14385,2.27729 -0.52232,3.80418 0.98107,0.57143 1.20583,1.04331 0.50507,1.06035 -0.69448,0.0169 -1.26269,0.65941 -1.26269,1.42779 0,1.1654 -0.71194,1.1401 -4.29315,-0.15259 -2.36123,-0.85232 -5.65685,-1.59464 -7.3236,-1.64961 -1.86193,-0.0614 -2.93167,-0.59106 -2.77427,-1.37361 0.31313,-1.5567 -5.75451,-7.24196 -7.77287,-7.28302 -1.05584,-0.0215 -0.92871,-0.415 0.46276,-1.43247 2.13174,-1.55876 4.06336,-1.11552 6.99186,1.60439 2.30765,2.14329 2.6989,2.18493 6.07545,0.64647 1.4151,-0.64476 2.57291,-2.00847 2.57291,-3.03046 0,-1.3086 0.74688,-1.85815 2.52538,-1.85815 1.85194,0 2.52538,-0.53875 2.52538,-2.02031 0,-1.11117 -0.45457,-2.0203 -1.01015,-2.0203 -0.55559,0 -1.01016,-0.68186 -1.01016,-1.51523 0,-0.83338 -0.69611,-1.51523 -1.54692,-1.51523 -0.85083,0 -1.80859,0.68185 -2.12839,1.51523 -1.16201,3.02817 -3.39575,1.637 -3.39575,-2.11488 0,-2.73721 -0.47975,-3.75555 -1.95044,-4.14015 -2.3215,-0.60709 -3.33625,-2.64416 -3.59844,-7.22375 -0.15256,-2.66447 0.30599,-3.60477 2.17268,-4.45529 1.35711,-0.61834 2.38131,-1.97809 2.40184,-3.18875 0.0197,-1.16087 0.68543,-3.24711 1.47943,-4.63607 0.794,-1.38896 1.45975,-2.86631 1.47943,-3.283 0.0708,-1.49778 -2.71842,-0.71686 -4.50989,1.26269 -1.00559,1.11117 -3.06029,2.02031 -4.56602,2.02031 -1.50571,0 -3.92373,0.93297 -5.37338,2.07326 -2.6421,2.07826 -3.00268,4.88026 -1.1919,9.26188 0.66971,1.62054 0.50279,1.63107 -2.45621,0.15492 -1.74612,-0.87108 -4.17621,-1.33929 -5.40022,-1.04048 -4.02118,0.98168 -6.02113,-1.6547 -6.27992,-8.27831 -0.26871,-6.87754 -3.70232,-14.11191 -7.00866,-14.76674 -1.13788,-0.22537 -3.29477,-0.66815 -4.79309,-0.98397 -1.56986,-0.33091 -3.48132,-1.85591 -4.51094,-3.59892 -0.98271,-1.66358 -2.37057,-3.02469 -3.08417,-3.02469 -0.71358,0 -1.29743,-0.64107 -1.29743,-1.42458 0,-1.76508 5.1033,-9.6871 6.24035,-9.6871 1.38266,0 0.93059,-1.76583 -0.6027,-2.35421 -1.62207,-0.62245 -4.94255,1.96907 -5.9286,4.62705 -0.36069,0.97227 -1.12462,1.76777 -1.69765,1.76777 -1.56028,0 -1.25496,-2.60622 0.47337,-4.04061 1.02918,-0.85414 1.51523,-3.14293 1.51523,-7.13514 0,-3.23268 0.45457,-6.15855 1.01016,-6.50192 1.59897,-0.98821 1.25375,-7.57614 -0.397,-7.57614 -1.44887,0 -2.63346,2.09095 -2.63346,4.64837 0,0.79899 -1.11828,3.22416 -2.48507,5.3893 -1.36679,2.16513 -2.77978,5.1108 -3.13997,6.54591 -0.83136,3.31243 -1.96651,3.29125 -4.87576,-0.0909 -2.2959,-2.66916 -2.39721,-2.68687 -8.79039,-1.53683 -11.30752,2.03406 -10.45667,2.25079 -10.13476,-2.58143 0.20297,-3.04669 -0.10493,-4.29315 -1.06051,-4.29315 -1.63978,-4e-5 -3.85873,-6.71366 -3.85873,-11.67496 0,-2.90853 -0.34958,-3.55849 -1.76777,-3.2866 -1.38657,0.26583 -1.91085,1.78298 -2.43132,7.03581 -0.36497,3.6833 -1.16046,7.62535 -1.76777,8.76012 -1.44266,2.69563 -1.4227,8.25696 0.0296,8.25696 0.75477,0 0.68811,0.53708 -0.19938,1.60645 -1.21874,1.46848 -1.43411,1.46848 -2.5079,0 -0.64603,-0.88355 -2.37459,-1.60645 -3.84119,-1.60645 -1.46661,0 -2.71704,-0.56821 -2.77875,-1.26269 -0.0617,-0.69448 -0.17535,-3.49373 -0.25254,-6.22056 -0.0836,-2.95368 -0.65078,-5.13155 -1.40303,-5.38749 -0.70137,-0.23863 -1.27689,0.39368 -1.29461,1.42235 -0.0176,1.01856 -1.17268,3.14909 -2.56693,4.73449 -2.20198,2.50388 -3.00793,2.79382 -6.13506,2.20716 -2.67115,-0.5011 -3.49055,-0.34682 -3.17563,0.59792 0.51713,1.5514 5.7211,3.06596 8.03246,2.33777 1.23426,-0.38886 1.85731,0.28403 2.3531,2.54138 0.37089,1.68865 1.18372,3.07028 1.80627,3.07028 0.79121,0 0.76704,0.36488 -0.0803,1.21218 -1.95631,1.9563 -1.48178,4.14471 0.77097,3.55561 1.09075,-0.28524 2.51011,0.11631 3.15416,0.89233 0.64403,0.77603 1.70625,1.41095 2.36048,1.41095 0.65424,0 1.7166,0.52709 2.36083,1.17131 0.88832,0.88832 0.0829,2.12936 -3.33351,5.13662 -5.06397,4.45749 -5.48776,6.51037 -2.38154,11.53633 2.40946,3.8986 4.23322,18.83174 2.5103,20.55467 -0.65768,0.65768 -0.5845,2.1428 0.2145,4.35239 0.66707,1.84473 1.21284,4.34849 1.21284,5.56393 0,2.74285 5.21222,10.07729 8.88063,12.4965 1.64014,1.08163 2.12919,1.81364 1.2209,1.82748 -7.48973,0.11416 -24.63785,2.15321 -26.47692,3.14833 -1.27183,0.68818 -9.63383,1.78561 -18.58221,2.43873 -17.43532,1.27255 -23.57273,3.10011 -28.19634,8.39619 l -2.07454,2.37629 -3.76713,-4.83528 c -2.55028,-3.2734 -3.4357,-5.1667 -2.7411,-5.8613 1.52594,-1.5259 1.24111,-3.65243 -0.48915,-3.65243 -1.46143,0 -1.93583,-1.12978 -1.59064,-3.78807 0.10434,-0.80347 -1.13798,-1.26269 -3.41584,-1.26269 -2.30663,0 -3.57982,-0.47819 -3.57982,-1.34454 0,-0.73949 -1.12706,-1.94771 -2.50458,-2.68494 -1.99317,-1.06671 -2.37482,-1.8574 -1.86911,-3.87232 0.54988,-2.19089 0.377,-2.42608 -1.28349,-1.74614 -4.31569,1.76718 -5.4545,1.80254 -5.4545,0.1693 0,-0.89817 -0.52501,-1.63304 -1.16671,-1.63304 -0.68594,0 -0.45758,-0.78359 0.55414,-1.90152 1.17731,-1.30091 1.51122,-2.73669 1.0572,-4.54569 -0.86875,-3.46137 -3.25262,-3.40028 -3.66053,0.0939 -0.36144,3.09609 -4.07329,4.66931 -7.24595,3.07112 -1.74571,-0.87938 -1.666,-1.16564 1.15125,-4.13455 3.66832,-3.86582 5.10942,-7.73546 2.88076,-7.73546 -0.83338,0 -1.78786,0.85895 -2.12106,1.9088 -0.71268,2.24545 -5.01908,3.30949 -8.31803,2.05523 -1.88035,-0.71494 -2.32397,-1.6404 -2.32397,-4.8482 0,-3.87229 -0.0839,-3.9646 -3.606,-3.9646 -4.64801,0 -5.3093,1.85101 -2.16569,6.062 4.54057,6.08229 5.041,7.65746 2.81181,8.85049 -1.3904,0.74412 -2.70269,0.72585 -4.43113,-0.0617 -2.06808,-0.94228 -2.87443,-0.75482 -5.10849,1.18767 -1.45903,1.26861 -2.65278,3.13373 -2.65278,4.14471 0,2.03815 -1.1584,2.31291 -3.80178,0.90172 -0.96474,-0.51502 -2.54956,-1.18261 -3.52183,-1.48353 -0.97227,-0.30086 -1.76777,-1.48474 -1.76777,-2.63078 0,-1.14604 -0.63132,-2.32598 -1.40295,-2.62207 -1.11885,-0.42935 -1.17656,-1.13815 -0.28498,-3.5002 1.53551,-4.06804 -0.7033,-6.13764 -7.32801,-6.77419 -3.29196,-0.31631 -5.12619,-0.9644 -5.12619,-1.8112 0,-0.72525 -0.90914,-1.60718 -2.02031,-1.95985 -1.11117,-0.35268 -2.0203,-1.51973 -2.0203,-2.59346 0,-1.07372 -0.42394,-1.95223 -0.94208,-1.95223 -1.80106,0 -2.18323,-3.95752 -0.66558,-6.89233 1.41102,-2.72863 1.82332,-2.89848 5.4332,-2.23837 2.14846,0.39287 4.43947,1.04384 5.09113,1.44659 0.65167,0.40275 1.18485,0.22099 1.18485,-0.4039 0,-1.84399 -2.00425,-5.04397 -3.1592,-5.04397 -0.5873,0 -2.2503,-0.93014 -3.69555,-2.06698 -1.44525,-1.13683 -3.56251,-1.97838 -4.70502,-1.8701 -4.12318,0.39074 -7.88496,-2.44779 -9.90183,-7.47165 -0.61155,-1.52336 0.005,-2.1953 3.27273,-3.56781 2.39836,-1.0073 4.03034,-2.37231 4.03646,-3.37613 0.006,-0.92683 0.28619,-2.40418 0.62343,-3.28299 0.46249,-1.20523 -0.0339,-1.59785 -2.02031,-1.59785 -1.4484,0 -2.63345,0.45457 -2.63345,1.01015 0,0.55558 -0.69612,1.01015 -1.54693,1.01015 -0.85082,0 -1.81372,0.69522 -2.13978,1.54492 -0.51462,1.34109 -0.76256,1.3128 -1.87928,-0.21441 -1.0971,-1.50037 -1.52917,-1.55789 -2.93541,-0.39081 -0.90692,0.75267 -1.77554,1.19009 -1.93028,0.97202 -2.07138,-2.91935 -3.71046,-6.18023 -3.71046,-7.38183 0,-2.45137 -3.26892,-3.71858 -5.16533,-2.00234 -1.44922,1.31152 -1.81664,1.1929 -3.29534,-1.06389 -0.91535,-1.397 -1.79948,-4.80974 -1.96472,-7.58387 -0.16525,-2.77414 -0.58323,-5.32665 -0.92884,-5.67227 -0.34562,-0.34562 -0.3838,-1.26581 -0.0849,-2.04487 0.29896,-0.77905 0.0403,-1.41646 -0.57467,-1.41646 -1.94373,0 -1.21286,-5.94133 1.35398,-11.00677 1.35972,-2.68327 2.77063,-7.12819 3.13535,-9.87759 0.63993,-4.82398 0.76558,-4.98388 3.5906,-4.56925 4.44203,0.65195 7.97443,-2.13051 7.97443,-6.2814 0,-4.15564 1.53264,-4.89876 8.26229,-4.00604 3.80854,0.50522 5.90808,0.21345 8.95877,-1.24498 2.19147,-1.04767 3.78594,-2.43982 3.54328,-3.09368 -0.24266,-0.65385 0.21363,-1.73229 1.01398,-2.39653 0.80037,-0.66424 1.4552,-1.83389 1.4552,-2.59923 0,-0.76536 0.44587,-1.39155 0.99083,-1.39155 0.59318,0 0.74077,-1.82429 0.36777,-4.54569 -0.51113,-3.72911 -0.33691,-4.54568 0.96986,-4.54568 0.87611,0 1.87386,0.45457 2.21723,1.01015 1.14306,1.84953 4.54568,1.13802 4.54568,-0.95053 0,-1.07838 0.48939,-2.26315 1.08752,-2.63282 1.47376,-0.91083 4.9734,3.00257 4.9734,5.56142 0,1.68375 0.64929,2.06254 3.53553,2.06254 2.46926,0 3.53554,0.45697 3.53554,1.51523 0,1.12239 1.17851,1.51523 4.54568,1.51523 2.50013,0 4.54569,0.45457 4.54569,1.01015 0,0.55559 0.88231,1.01015 1.96068,1.01015 1.07838,0 2.2459,0.46146 2.59446,1.02546 0.98975,1.60144 7.49587,4.02531 10.80469,4.02531 4.3856,0 3.02778,-2.05574 -2.52926,-3.8293 -4.19573,-1.33909 -4.74935,-1.85188 -4.74935,-4.39908 0,-2.84393 -0.0811,-2.8833 -5.93723,-2.8833 -4.0452,0 -6.33796,-0.48286 -7.19475,-1.51523 -0.69165,-0.83338 -2.3383,-1.51523 -3.65922,-1.51523 -2.82836,0 -2.8718,-0.20139 -0.87602,-4.06083 1.68761,-3.26345 4.32189,-5.03054 7.49929,-5.03054 2.64572,0 2.73592,-2.68826 0.11807,-3.51913 -1.85487,-0.58872 -1.86947,-0.72746 -0.25254,-2.40107 1.50943,-1.56233 2.10758,-1.61693 4.96665,-0.45341 3.69997,1.50573 9.37636,1.76636 9.37636,0.43051 0,-0.49079 -0.91215,-1.13087 -2.02699,-1.42241 -1.26817,-0.33163 -2.26085,-1.69931 -2.65165,-3.65335 -0.56243,-2.81209 -3.40258,-4.57594 -3.40258,-2.11312 0,0.55558 -0.90914,1.01015 -2.02031,1.01015 -2.35936,0 -2.74626,-2.8153 -0.50507,-3.67531 2.50282,-0.96043 1.76026,-3.39576 -1.03541,-3.39576 -2.01358,0 -2.67553,0.6245 -3.14381,2.96588 -0.32624,1.63123 -1.22402,3.20796 -1.99505,3.50383 -0.77104,0.29588 -1.40188,1.20344 -1.40188,2.01681 0,0.81338 -0.92095,1.77116 -2.04656,2.12842 -1.49167,0.47343 -1.97096,1.37997 -1.76776,3.34355 0.20481,1.97905 -0.32439,2.96063 -1.99405,3.69866 -1.25007,0.55257 -2.27285,1.5519 -2.27285,2.22074 0,2.16448 -1.90157,2.46984 -4.55471,0.73142 -2.47439,-1.62127 -2.6968,-1.59906 -4.92227,0.49166 -3.62616,3.40659 -5.17023,2.00264 -5.17023,-4.70105 0,-5.75486 0.0201,-5.79358 3.03046,-5.83256 1.66675,-0.0216 3.98045,-0.37004 5.14156,-0.77436 4.30718,-1.4998 6.47519,-9.99187 6.47519,-25.36326 0,-11.28946 -0.10933,-11.90165 -2.52538,-14.14077 -1.38896,-1.28725 -2.52538,-2.79383 -2.52538,-3.34797 0,-0.55414 -3.46581,-1.32159 -7.70181,-1.70544 -4.23599,-0.38386 -8.29468,-1.2908 -9.01932,-2.01543 -1.19154,-1.19155 -1.30678,-4.95645 -0.5476,-17.89104 0.13783,-2.34813 9.14201,-11.33513 12.72526,-12.70096 1.66554,-0.63486 4.34406,-1.44368 5.95227,-1.79739 4.47579,-0.98439 1.74115,-2.27533 -3.7543,-1.77229 -4.4332,0.4058 -5.47707,1.05423 -11.61676,7.21603 -6.33926,6.3621 -6.8505,7.22326 -8.48181,14.28718 -2.42243,10.48961 -0.99025,16.02924 5.35429,20.71009 2.54631,1.87861 4.60641,2.46428 8.66803,2.46428 6.04,0 6.22536,0.84256 1.33663,6.07597 -3.23895,3.4673 -3.74191,3.58613 -6.10944,1.44354 -1.57301,-1.42355 -2.22386,-1.41258 -6.89807,0.11628 -2.83865,0.92847 -5.16118,2.03523 -5.16118,2.45946 0,0.42423 1.25006,1.29056 2.77792,1.92517 3.45149,1.43363 6.31345,6.26874 6.31345,10.66619 0,4.26325 -1.60069,5.52352 -7.97427,6.27838 -5.31142,0.62905 -6.07181,1.566 -3.75153,4.62259 1.57671,2.07705 7.63088,2.39489 9.62096,0.50507 1.09187,-1.03685 1.20771,-0.63035 0.6477,2.27285 -1.08773,5.63904 -1.01074,7.12106 0.80484,15.49407 1.67321,7.71638 1.66567,8.00083 -0.29609,11.17504 -2.79595,4.52394 -6.17792,6.18629 -9.92689,4.87939 -1.6262,-0.56689 -4.9828,-0.80235 -7.45914,-0.52322 -3.80004,0.42831 -4.71011,0.97668 -5.83375,3.51517 -0.97884,2.21134 -1.04918,3.62697 -0.26565,5.34661 0.89283,1.95955 0.75493,2.42017 -0.85017,2.83992 -1.05372,0.27555 -2.44279,-0.13391 -3.08683,-0.90993 -0.64403,-0.77603 -2.2211,-1.41095 -3.5046,-1.41095 -2.81111,0 -3.93613,2.80728 -3.0398,7.58519 0.36191,1.92912 0.18705,3.64395 -0.40913,4.01241 -0.57262,0.35391 -1.04114,1.52577 -1.04114,2.60415 0,1.07838 -0.40451,1.96069 -0.89891,1.96069 -0.4944,0 -1.86043,2.04556 -3.03564,4.54568 -1.17519,2.50013 -2.81624,4.54569 -3.64677,4.54569 -0.83054,0 -1.51005,0.87126 -1.51005,1.93613 0,1.06486 -0.56822,2.16668 -1.2627,2.44848 -1.23975,0.50303 -0.0151,1.86896 2.77792,3.09821 0.57849,0.25461 0.40499,0.86721 -0.406,1.43357 -1.17495,0.82054 -0.95988,1.76754 1.26269,5.56009 1.71138,2.92025 2.67885,6.05661 2.67885,8.68437 0,4.02058 -0.079,4.11327 -3.50481,4.11327 -1.92764,0 -5.12345,0.90914 -7.10179,2.0203 -4.49077,2.52231 -5.26036,2.52231 -6.06092,0 -0.82045,-2.58499 -3.02414,-2.58684 -4.8332,-0.004 -1.38498,1.97734 -1.4348,1.96668 -2.58265,-0.5526 -0.64375,-1.4129 -1.17045,-3.18006 -1.17045,-3.92706 0,-0.74701 -1.13642,-1.64342 -2.52538,-1.99202 -1.6653,-0.41797 -2.58422,-1.40135 -2.69816,-2.88743 -0.095,-1.23948 -0.25796,-3.16274 -0.36207,-4.2739 -0.10411,-1.11117 -0.25364,-3.07471 -0.33229,-4.36341 -0.11115,-1.82101 -0.64944,-2.27118 -2.41585,-2.0203 -2.11397,0.30022 -2.24894,0.74647 -1.93084,6.38371 0.18811,3.3335 0.75632,6.49275 1.26269,7.02056 0.50638,0.5278 0.92068,1.61091 0.92068,2.40689 0,0.79599 0.84498,2.18242 1.87771,3.08096 1.03274,0.89855 1.82823,2.77014 1.76776,4.1591 -0.0964,2.21275 0.35901,2.56419 3.67814,2.8389 2.08344,0.17244 3.78807,0.74065 3.78807,1.2627 0,0.52203 0.81823,0.94916 1.81828,0.94916 1.00005,0 2.34449,0.52622 2.98764,1.16938 0.88573,0.88572 1.54729,0.85572 2.72742,-0.1237 1.30039,-1.07922 1.55803,-1.00811 1.55803,0.43005 0,2.45536 2.46083,1.33018 2.84818,-1.30231 0.32602,-2.21561 2.20259,-3.1389 2.20259,-1.08369 0,2.8146 3.38419,7.98134 5.22775,7.98134 1.74952,0 1.89407,-0.48706 1.30676,-4.40345 -0.60407,-4.02824 -0.45871,-4.45641 1.70588,-5.02499 1.30142,-0.34184 2.51773,-0.17856 2.70292,0.36285 0.53908,1.57595 3.19882,1.13456 3.19882,-0.53086 0,-0.83337 0.38412,-1.51523 0.85359,-1.51523 1.08073,0 4.18439,3.38877 4.23609,4.62523 0.0214,0.51183 1.49875,1.8521 3.28299,2.97835 2.50921,1.58387 3.17417,2.64281 2.93546,4.67464 -0.23788,2.02455 0.22538,2.77028 2.0203,3.25222 1.28091,0.34393 4.00566,2.14833 6.05499,4.00976 3.13486,2.84744 3.51268,3.60928 2.38126,4.80156 -2.27354,2.39583 -2.94629,5.96282 -1.12462,5.96282 0.87082,0 1.5833,0.68185 1.5833,1.51523 0,0.83338 0.45457,1.51523 1.01015,1.51523 0.55559,0 1.01015,1.13642 1.01015,2.52538 0,1.38896 0.51609,2.52538 1.14686,2.52538 1.56415,0 5.60888,4.48153 5.187,5.74717 -0.18713,0.56138 0.35677,1.59914 1.20865,2.30613 0.9588,0.79573 1.54887,2.9651 1.54887,5.69432 v 4.40887 l -4.50062,-2.18657 -4.50061,-2.18657 -5.85345,1.94716 c -8.3596,2.78084 -21.66194,9.75329 -25.37104,13.29828 -0.73416,0.70169 -1.87058,1.28064 -2.52538,1.28657 -0.65479,0.006 -3.40342,2.05147 -6.10805,4.54568 -2.70464,2.4942 -5.23653,4.53491 -5.62644,4.53491 -1.18156,0 -7.13372,5.66117 -7.13372,6.78494 0,0.5769 -0.65456,1.59214 -1.45459,2.25611 -0.80002,0.66395 -1.64724,2.19696 -1.88273,3.40668 -0.29912,1.53658 -0.46962,1.22985 -0.56573,-1.01775 -0.13555,-3.17032 1.3479,-8.33708 2.70356,-9.41629 0.38192,-0.30405 2.66304,-2.64075 5.06913,-5.19267 4.21915,-4.47486 4.34978,-4.80617 3.67337,-9.31674 -0.90749,-6.0516 -3.68198,-6.44917 -6.20273,-0.8888 l -1.7173,3.78807 -0.38709,-2.81339 c -0.21289,-1.54738 -1.26449,-3.36136 -2.33686,-4.03107 -1.51422,-0.94564 -1.94979,-2.37407 -1.94979,-6.39428 0,-3.64706 -0.59695,-5.93553 -2.02031,-7.74503 -2.67038,-3.39485 -2.67038,-6.79542 0,-6.79542 1.11117,0 2.02031,-0.45457 2.02031,-1.01016 0,-0.55558 0.68185,-1.01015 1.51523,-1.01015 1.82303,0 2.06194,-3.97215 0.25254,-4.19872 -0.69448,-0.087 -2.47583,-0.24597 -3.95856,-0.35335 -2.78509,-0.2017 -7.82145,-4.95437 -7.87882,-7.43504 -0.0209,-0.90385 -0.76967,-1.18758 -2.16862,-0.82174 -1.17518,0.30731 -2.97279,0.0366 -3.99467,-0.60156 -2.54342,-1.58839 -3.52966,-0.26011 -2.11394,2.84707 0.64583,1.41745 1.17425,3.49557 1.17425,4.61803 0,1.66308 -0.42071,1.90336 -2.27285,1.29805 -2.6605,-0.86948 -11.70636,-0.90314 -12.56276,-0.0468 -0.79814,0.79815 1.71798,6.71432 2.85557,6.71432 0.49876,0 0.60937,1.18521 0.2458,2.6338 -0.36356,1.4486 -0.20217,2.92594 0.35867,3.28299 0.62419,0.3974 0.68624,1.5405 0.15998,2.94712 -0.68841,1.84007 -1.36753,2.17048 -3.40835,1.65827 -2.73106,-0.68546 -3.55747,1.19693 -1.45049,3.30391 0.7908,0.79079 0.7908,1.28814 0,1.77687 -0.60399,0.3733 -1.09817,1.60965 -1.09817,2.74748 0,1.47143 -0.46136,1.89172 -1.59785,1.45561 -0.87881,-0.33722 -2.00223,-0.61314 -2.4965,-0.61314 -1.40113,0 -2.82076,-6.38437 -1.73093,-7.78443 0.52165,-0.67014 0.6552,-1.69292 0.29679,-2.27285 -0.83137,-1.34517 -3.56288,-1.37909 -3.56288,-0.0442 0,0.55558 -0.45871,1.01015 -1.01935,1.01015 -1.42676,0 -7.06187,-5.5282 -7.06187,-6.92789 0,-1.81038 -2.73962,-1.34797 -3.48244,0.58779 -0.42017,1.09496 0.008,2.26378 1.15461,3.14947 1.61807,1.25021 1.35058,1.33852 -2.38209,0.78645 -2.31266,-0.34205 -4.92643,-0.8988 -5.80837,-1.23725 -1.1158,-0.42817 -1.60354,-0.035 -1.60354,1.29252 0,2.27979 7.68521,4.95166 11.11319,3.86367 3.24971,-1.03143 6.11621,1.98925 5.38016,5.66953 -0.43175,2.15878 -0.19702,2.91724 0.90285,2.91724 3.12621,0 8.17999,3.41961 9.25231,6.26051 0.73187,1.93892 1.66267,2.79529 2.73381,2.51519 1.11074,-0.29047 2.0128,0.65019 2.85379,2.97594 0.67634,1.87036 1.65484,3.40065 2.17446,3.40065 0.51962,0 0.94477,0.68185 0.94477,1.51522 0,0.83338 0.86051,1.51523 1.91223,1.51523 1.05173,0 2.17388,0.68186 2.49368,1.51523 0.35418,0.92299 0.002,1.51523 -0.90208,1.51523 -1.05616,0 -1.48353,1.15844 -1.48353,4.02137 0,3.44699 0.3607,4.11189 2.52538,4.65519 1.38896,0.34861 2.52539,1.00205 2.52539,1.45209 0,0.45004 1.54588,1.77367 3.4353,2.94139 1.88941,1.16772 3.70883,2.83593 4.04314,3.70714 0.51281,1.33637 -0.0124,1.47921 -3.35968,0.91369 -2.3172,-0.39148 -4.83934,-0.20372 -6.06345,0.4514 -2.47059,1.32223 -2.92545,6.10139 -0.5807,6.10139 0.83338,0 1.51523,-0.63322 1.51523,-1.40715 0,-1.30555 2.04529,-2.63346 4.05614,-2.63346 0.47324,0 1.00427,1.25007 1.18007,2.77792 0.22989,1.99794 0.88689,2.77792 2.33994,2.77792 1.16519,0 2.25099,0.85512 2.56533,2.02031 0.69118,2.56208 5.75487,3.38404 6.63985,1.0778 0.33408,-0.87058 1.65732,-1.58288 2.94055,-1.58288 1.28321,0 2.54146,-0.56821 2.79611,-1.26269 0.37038,-1.01015 0.73067,-1.01015 1.80144,0 0.73614,0.69448 1.90873,1.26269 2.60573,1.26269 0.69701,0 2.4037,1.13642 3.79266,2.52538 1.38896,1.38896 2.19485,2.52538 1.79086,2.52538 -0.40399,0 -1.61571,1.63627 -2.69272,3.63615 -1.79351,3.33034 -1.82845,3.8622 -0.41554,6.32408 1.44804,2.52305 1.39483,2.84217 -0.86744,5.20268 -3.64773,3.80615 -5.53761,8.01038 -5.06089,11.25847 0.36353,2.4769 0.0326,3.00568 -2.17781,3.4805 -6.31039,1.35548 -7.15214,2.3579 -7.15214,8.51723 0,5.56401 -0.13159,5.84404 -4.00925,8.53125 -2.20508,1.52813 -4.27448,3.6141 -4.59866,4.63551 -0.58985,1.85845 -5.70475,4.98267 -8.15752,4.98267 -0.71652,0 -1.99723,0.9915 -2.84603,2.20333 -1.39738,1.99504 -1.71314,2.0588 -3.34028,0.67443 -2.5788,-2.19405 -8.8135,-4.89806 -11.29357,-4.89806 -1.1661,0 -2.12018,-0.42394 -2.12018,-0.94208 0,-0.51815 -0.90914,-1.23063 -2.02031,-1.5833 -1.5034,-0.47716 -2.0203,-1.52839 -2.0203,-4.10869 0,-1.90709 -0.37051,-3.46746 -0.82335,-3.46746 -0.45284,0 -1.89832,-3.04501 -3.21218,-6.76668 -2.85213,-8.079 -4.85436,-10.82051 -6.75227,-9.24538 -0.97021,0.8052 -1.47231,0.66466 -1.93524,-0.54169 -0.87596,-2.28273 -2.42925,-2.03253 -2.42925,0.39131 0,1.11117 0.36886,2.02031 0.81968,2.02031 0.45082,0 1.9021,1.00843 3.22507,2.24097 l 2.40541,2.24097 -2.46746,0.59398 c -1.35711,0.3267 -3.70019,0.13428 -5.20683,-0.42757 -2.86514,-1.06846 -5.20129,-0.0613 -3.00555,1.29571 0.69721,0.4309 0.98262,1.5262 0.63427,2.43401 -0.55071,1.43513 0.0186,1.57335 4.36151,1.05899 4.61118,-0.54613 5.05362,-0.40754 5.75951,1.80421 0.42055,1.31768 0.69305,2.9742 0.60556,3.68115 -0.0875,0.70694 0.58252,2.02695 1.4889,2.93333 1.20682,1.20683 1.47083,2.59232 0.9862,5.17563 -0.45572,2.42919 -0.24574,3.79143 0.67434,4.37479 1.01447,0.64321 0.91056,0.85089 -0.43162,0.86263 -0.97228,0.008 -1.76777,0.69732 -1.76777,1.5307 0,0.83337 -0.45457,1.51523 -1.01015,1.51523 -0.55559,0 -1.01016,1.06066 -1.01016,2.35702 v 2.35703 h -14.90411 c -10.65725,0 -15.62247,0.39147 -17.42513,1.37384 -3.4248,1.86637 -25.94765,2.77477 -35.663693,1.43841 -4.69151,-0.64528 -4.798907,-0.73398 -3.126435,-2.58204 0.952583,-1.05259 2.343369,-1.9138 3.090637,-1.9138 0.747266,0 1.358671,-0.90914 1.358671,-2.02031 0,-1.12239 0.67343,-2.0203 1.51522,-2.0203 1.05331,0 1.51523,-1.05966 1.51523,-3.47592 0,-4.02798 -1.78258,-5.65822 -3.547598,-3.24441 -0.671445,0.91826 -1.738907,1.66956 -2.372138,1.66956 -0.63323,0 -1.151328,1.36371 -1.151328,3.03046 0,1.79458 -0.529242,3.03046 -1.297738,3.03046 -0.713757,0 -2.720638,1.23025 -4.459737,2.7339 -2.607891,2.25483 -3.973641,2.684 -7.793634,2.44909 -3.169214,-0.19489 -4.631637,0.11138 -4.631637,0.96999 0,0.69014 -0.322409,0.93239 -0.716466,0.53834 -0.394055,-0.39406 -0.591849,-2.4424 -0.439541,-4.55186 0.237469,-3.28895 -0.228233,-4.27894 -3.268605,-6.94841 -6.143657,-5.39421 -19.814344,-5.8106 -30.155366,-0.91853 -3.125674,1.47869 -6.39709,2.41451 -7.269813,2.07961 -1.434822,-0.55059 -1.586768,-19.65447 -1.586768,-199.50087 V 147.05429 H 373.10574 711.50685 v 205.56605 c 0,126.12656 -0.36322,205.56604 -0.9399,205.56604 -0.51695,0 -1.08516,-1.01813 -1.26269,-2.26252 -0.17925,-1.25643 -1.17312,-2.42472 -2.23502,-2.62727 -1.51256,-0.28851 -1.79551,0.0815 -1.35381,1.77066 0.90142,3.44702 -2.32876,4.42876 -11.7453,3.56973 -12.59782,-1.14925 -18.56124,-0.77118 -21.65991,1.37318 -3.84696,2.66221 -4.34497,2.81174 -8.07879,2.42582 z"
       id="path828"
       inkscape:connector-curvature="0"
       transform="scale(0.26458333)" />
    <circle
       style="opacity:1;fill:#ffffff;fill-opacity:1;stroke:#000012;stroke-width:0.25;stroke-linecap:round;stroke-linejoin:round;stroke-miterlimit:4;stroke-dasharray:none;stroke-dashoffset:0;stroke-opacity:1"
       id="path918"
       cx="138.90498"
       cy="110.32059"
       r="0.5094825"
       inkscape:export-xdpi="96"
       inkscape:export-ydpi="96" />
    <circle
       r="0.5094825"
       cy="94.983391"
       cx="121.33103"
       id="circle920"
       style="opacity:1;fill:#ffffff;fill-opacity:1;stroke:#000012;stroke-width:0.25;stroke-linecap:round;stroke-linejoin:round;stroke-miterlimit:4;stroke-dasharray:none;stroke-dashoffset:0;stroke-opacity:1" />
    <circle
       style="opacity:1;fill:#ffffff;fill-opacity:1;stroke:#000012;stroke-width:0.25;stroke-linecap:round;stroke-linejoin:round;stroke-miterlimit:4;stroke-dasharray:none;stroke-dashoffset:0;stroke-opacity:1"
       id="circle922"
       cx="77.485794"
       cy="105.28324"
       r="0.5094825" />
    <circle
       r="0.5094825"
       cy="47.452885"
       cx="80.887581"
       id="circle924"
       style="opacity:1;fill:#ffffff;fill-opacity:1;stroke:#000012;stroke-width:0.25;stroke-linecap:round;stroke-linejoin:round;stroke-miterlimit:4;stroke-dasharray:none;stroke-dashoffset:0;stroke-opacity:1" />
    <circle
       r="0.5094825"
       cy="179.23819"
       cx="127.45615"
       id="circle926"
       style="opacity:1;fill:#ffffff;fill-opacity:1;stroke:#000012;stroke-width:0.25;stroke-linecap:round;stroke-linejoin:round;stroke-miterlimit:4;stroke-dasharray:none;stroke-dashoffset:0;stroke-opacity:1"
       inkscape:export-xdpi="96"
       inkscape:export-ydpi="96" />
  </g>
</svg>
